<?xml version="1.0" encoding="UTF-8"?>
<svg version="1.1" viewBox="0 0 50.199333 100.00003" xmlns="http://www.w3.org/2000/svg">
 <g transform="translate(-73.113 -59.655)">
  <path d="m97.882 59.655c-6.1177 0.0079-12.23 0.03912-18.347 0.54496 0 0-6.0504 0.29084-6.4033 3.3833 0 0-0.09322 4.3627 0.13624 10.559l-0.13624 80.563c0.14475 3.9093 3.3843 4.6589 14.373 4.7457l10.49 0.18165v0.0227h0.22706v-0.0227l10.468-0.18165c10.989-0.0868 14.251-0.8363 14.396-4.7457l-0.13624-80.563c0.22946-6.1956 0.13624-10.559 0.13624-10.559-0.35287-3.0924-6.4033-3.3833-6.4033-3.3833-6.1179-0.50585-12.252-0.53705-18.37-0.54496-0.14528-1.87e-4 -0.28615 1.72e-4 -0.43143 0zm-22.843 8.1063h45.936v81.176h-45.936v-81.176z" fill="#171717"/>
  <rect x="75.028" y="143.11" width="45.938" height="5.8216" fill="#010101"/>
  <path transform="matrix(.1938 0 0 .1938 20.481 67.214)" d="m314.55-14.789c0 0.85062-0.66957 1.5402-1.4955 1.5402-0.82596 0-1.4955-0.68956-1.4955-1.5402 0-0.85062 0.66957-1.5402 1.4955-1.5402 0.82597 0 1.4955 0.68956 1.4955 1.5402z" color="#000000" fill="#3d3d3d"/>
  <path d="m123.07 72.217v6.4024" fill="none" stroke="#5a5a5a" stroke-width=".46513"/>
  <path transform="matrix(.25007 0 0 .20267 -1.9918 67.271)" d="m403.69-14.583c0 2.6406-1.7349 4.7812-3.875 4.7812s-3.875-2.1406-3.875-4.7812 1.7349-4.7812 3.875-4.7812 3.875 2.1406 3.875 4.7812z" color="#000000" fill="#3d3d3d"/>
  <rect x="75.039" y="67.761" width="45.936" height="3.2975" fill="#010101"/>
  <g transform="matrix(.72661 0 0 .72661 19.988 43.648)">
   <path d="m123.39 36.386c0.21393-0.04168 0.25283-0.03333 0.36674 0" fill="none" stroke="#fff" stroke-width=".26672px"/>
   <path d="m122.93 35.853c0.33896-0.35841 1.0113-0.31673 1.3169-0.01667" fill="none" stroke="#fff" stroke-width=".26672px"/>
   <path d="m122.44 35.347c0.73904-0.65014 1.6114-0.63346 2.2588 0.0084" fill="none" stroke="#fff" stroke-width=".26672px"/>
   <path d="m122.02 34.788c0.92241-0.89185 2.4116-0.78349 3.1423-0.05001" fill="none" stroke="#fff" stroke-width=".26672px"/>
   <path d="m125.27 36.753-8e-3 -0.40008 0.49177-0.28339-8e-3 0.68347z" fill="#f6f6f6"/>
   <path d="m125.97 36.736 0.0333-1.0585 0.39175-0.29173v1.3753z" fill="#f6f6f6"/>
   <path d="m126.66 36.736 0.0333-1.7379 0.39175-0.29173v2.0546z" fill="#f6f6f6"/>
   <path d="m127.33 36.732 0.0353-2.3296 0.41479-0.29173v2.6464z" fill="#f6f6f6"/>
   <path d="m128.85 36.678h1.6503v-2.4422h-0.55011v-0.25839h-0.57512v0.25005h-0.53345z" fill="#f6f6f6"/>
   <text x="131.34911" y="36.543533" fill="#ffffff" font-family="Sans" font-size="3.087px" letter-spacing="0px" word-spacing="0px" style="line-height:100%" xml:space="preserve">
        <tspan x="131.34911" y="36.543533" fill="#ffffff" font-family="Sans" font-size="3.087px" word-spacing="0px" style="line-height:100%">4:45</tspan>
      </text>
  </g>
  <g fill="none" stroke="#fff" stroke-width=".1938px">
   <path d="m82.552 145.56 3.5202 0.0318c0.94031 0.0134 0.80091 1.3324-0.01211 1.3324l-1.7079 0.0121"/>
   <path d="m83.19 144.83-0.63743 0.73134 0.62532 0.85544"/>
  </g>
  <path d="m110.09 144.86 3.3552 0.0121v1.4414m-4.3728-0.77523h3.513v1.3445h-3.513z" fill="none" stroke="#fff" stroke-width=".1938px"/>
  <path d="m95.593 147.06 4.53 0.0242v-1.4172l-2.2891-0.88421-2.2409 0.94481z" fill="none" stroke="#fff" stroke-width=".1938px"/>
 </g>
</svg>
